<svg xmlns="http://www.w3.org/2000/svg" width="35.273" height="35.273" viewBox="0 0 35.273 35.273"><defs><style>.a{fill:#f57c00;}.b{fill:#8bc34a;}.c{fill:#ffb301;}.d{fill:#37474f;}.e{fill:#e91e63;}.f{fill:#fff;}</style></defs><g transform="translate(0 0)"><path class="a" d="M35.278,119.469h.888a6.463,6.463,0,0,1,6.467,6.467v11.757a6.463,6.463,0,0,1-6.467,6.467H15a6.463,6.463,0,0,1-6.467-6.467V125.935A6.463,6.463,0,0,1,15,119.469Zm0,0" transform="translate(-7.947 -111.238)"/><path class="b" d="M237,14.8l-1.74,3.727L233.73,14.96c.441-1.793,1.67-5.068,4.909-6.367a.814.814,0,0,1,.312-.059.791.791,0,0,1,.794.8.763.763,0,0,1-.235.552A8.125,8.125,0,0,0,237,14.8Zm0,0" transform="translate(-217.628 -7.947)"/><g transform="translate(2.205 5.879)"><path class="c" d="M93.867,91.8a6.461,6.461,0,0,1,6.467-6.467,4.874,4.874,0,0,1,2.9.923,3.98,3.98,0,0,1,1.808,3.192,3.981,3.981,0,0,1,1.807-3.192,4.873,4.873,0,0,1,2.9-.923,6.461,6.461,0,0,1,6.467,6.467l-.514,17.46a4.054,4.054,0,0,1-.838,2.371,6.473,6.473,0,0,1-5.115,2.509h-9.406a6.5,6.5,0,0,1-5.114-2.509,4.054,4.054,0,0,1-.838-2.371Zm0,0" transform="translate(-89.605 -85.333)"/><path class="c" d="M33.335,170.309a1.335,1.335,0,0,1,1.335,1.335v6.075a1.335,1.335,0,1,1-2.67,0v-6.075A1.335,1.335,0,0,1,33.335,170.309Zm0,0" transform="translate(-32 -164.454)"/><path class="c" d="M444.218,170.309a1.335,1.335,0,0,1,1.335,1.335v6.075a1.335,1.335,0,0,1-2.67,0v-6.075A1.335,1.335,0,0,1,444.218,170.309Zm0,0" transform="translate(-414.576 -164.454)"/></g><path class="d" d="M111.221,183.612a4.409,4.409,0,1,1-4.409-4.409A4.409,4.409,0,0,1,111.221,183.612Zm0,0" transform="translate(-95.348 -166.857)"/><path class="d" d="M180.375,341.336h8.23a1.176,1.176,0,0,1,1.176,1.176v1.763a5.291,5.291,0,0,1-10.582,0v-1.763a1.176,1.176,0,0,1,1.176-1.176Zm0,0" transform="translate(-166.854 -317.821)"/><path class="e" d="M200.967,394.887c0-1.3-1.969-2.351-4.4-2.351s-4.4,1.053-4.4,2.351,1.969,2.351,4.4,2.351S200.967,396.185,200.967,394.887Zm0,0" transform="translate(-178.933 -365.493)"/><path class="f" d="M109.2,183.358a2.649,2.649,0,0,1-5.179.782v-.006a4.421,4.421,0,0,1,3.31-3.31h.006A2.66,2.66,0,0,1,109.2,183.358Zm0,0" transform="translate(-96.857 -168.367)"/><path class="f" d="M181.51,266.017l.041.035a4.041,4.041,0,0,1-1.1.864l-.023-.035a.161.161,0,0,1-.053.006,1.176,1.176,0,1,1,1.176-1.176A1.332,1.332,0,0,1,181.51,266.017Zm0,0" transform="translate(-166.854 -246.311)"/><path class="d" d="M290.42,183.612a4.409,4.409,0,1,1-4.409-4.409A4.409,4.409,0,0,1,290.42,183.612Zm0,0" transform="translate(-262.201 -166.857)"/><path class="f" d="M288.4,183.358a2.649,2.649,0,0,1-5.179.782v-.006a4.421,4.421,0,0,1,3.31-3.31h.006A2.661,2.661,0,0,1,288.4,183.358Zm0,0" transform="translate(-263.711 -168.367)"/><path class="f" d="M360.713,266.017l.041.035a4.039,4.039,0,0,1-1.1.864l-.024-.035a.16.16,0,0,1-.053.006,1.176,1.176,0,1,1,1.176-1.176A1.333,1.333,0,0,1,360.713,266.017Zm0,0" transform="translate(-333.711 -246.311)"/><path d="M7.055,33.509H8.278a6.976,6.976,0,0,0,4.655,1.763h9.406A6.979,6.979,0,0,0,27,33.509h1.223a7.062,7.062,0,0,0,7.054-7.055V14.7a7.062,7.062,0,0,0-7.054-7.055h-.631a7.041,7.041,0,0,0-5.248-2.351A5.583,5.583,0,0,0,20.2,5.7,8.229,8.229,0,0,1,22.3,2.352a1.364,1.364,0,0,0,.407-.964A1.391,1.391,0,0,0,20.792.1a9.082,9.082,0,0,0-5.03,5.953,5.479,5.479,0,0,0-2.828-.763A7.039,7.039,0,0,0,7.687,7.643H7.055A7.062,7.062,0,0,0,0,14.7V26.455A7.062,7.062,0,0,0,7.055,33.509ZM21.236,1.19a.231.231,0,0,1,.086-.014.206.206,0,0,1,.206.212.18.18,0,0,1-.063.137A8.836,8.836,0,0,0,18.83,6.542a5.236,5.236,0,0,0-1.194,1.344A5.035,5.035,0,0,0,16.76,6.82C17.244,5.07,18.432,2.315,21.236,1.19ZM1.176,14.7a5.879,5.879,0,0,1,5.64-5.867,7.078,7.078,0,0,0-.937,3.515.588.588,0,0,0,1.176,0,5.873,5.873,0,0,1,5.879-5.879,4.314,4.314,0,0,1,2.547.808,3.346,3.346,0,0,1,1.569,2.719.588.588,0,1,0,1.176,0,3.33,3.33,0,0,1,1.529-2.688c.013-.01.024-.021.037-.031a4.316,4.316,0,0,1,2.549-.809,5.874,5.874,0,0,1,5.879,5.879.588.588,0,0,0,1.176,0,7.075,7.075,0,0,0-.937-3.515A5.879,5.879,0,0,1,34.1,14.7V26.455a5.885,5.885,0,0,1-5.879,5.879h-.147a6.986,6.986,0,0,0,.729-1.271.588.588,0,1,0-1.076-.474A5.874,5.874,0,0,1,22.339,34.1H12.933a5.855,5.855,0,0,1-4.036-1.6,5.8,5.8,0,0,1-1.348-1.9.588.588,0,1,0-1.076.474A6.987,6.987,0,0,0,7.2,32.334H7.055a5.886,5.886,0,0,1-5.879-5.879Zm0,0" transform="translate(0 0)"/><path d="M98.864,180.662a5,5,0,1,0-5-5A5,5,0,0,0,98.864,180.662Zm1.47-2.351a.588.588,0,1,1,1.176,0,.517.517,0,0,1-.018.122,3.844,3.844,0,0,1-.6.466A.588.588,0,0,1,100.334,178.31Zm2.351-2.645a3.8,3.8,0,0,1-.353,1.6,1.757,1.757,0,1,0-2.77,2.157,3.779,3.779,0,0,1-.7.067,3.827,3.827,0,0,1-3.737-3.026,3.233,3.233,0,0,0,4.532-4.532A3.827,3.827,0,0,1,102.685,175.665Zm-4.838-3.68a2.058,2.058,0,1,1-2.662,2.663A3.829,3.829,0,0,1,97.847,171.986Zm0,0" transform="translate(-87.4 -158.91)"/><path d="M278.064,180.662a5,5,0,1,0-5-5A5,5,0,0,0,278.064,180.662Zm1.47-2.351a.588.588,0,1,1,1.176,0,.532.532,0,0,1-.018.122,3.857,3.857,0,0,1-.6.466A.588.588,0,0,1,279.533,178.31Zm2.352-2.645a3.8,3.8,0,0,1-.353,1.6,1.757,1.757,0,1,0-2.77,2.157,3.777,3.777,0,0,1-.7.067,3.827,3.827,0,0,1-3.737-3.026,3.233,3.233,0,0,0,4.532-4.532A3.827,3.827,0,0,1,281.885,175.665Zm-4.838-3.68a2.058,2.058,0,1,1-2.663,2.663A3.829,3.829,0,0,1,277.047,171.986Zm0,0" transform="translate(-254.254 -158.91)"/><path d="M170.668,334.565v1.763a5.846,5.846,0,0,0,.987,3.254l.008.013a5.873,5.873,0,0,0,9.768,0l.008-.013a5.846,5.846,0,0,0,.987-3.254v-1.763a1.764,1.764,0,0,0-1.764-1.764h-8.23A1.764,1.764,0,0,0,170.668,334.565Zm5.879,6.467a4.693,4.693,0,0,1-3.662-1.76,4.679,4.679,0,0,1,7.325,0A4.694,4.694,0,0,1,176.547,341.031Zm4.7-6.467v1.763a4.666,4.666,0,0,1-.4,1.888,5.849,5.849,0,0,0-8.608,0,4.666,4.666,0,0,1-.4-1.888v-1.763a.588.588,0,0,1,.588-.588h8.23A.588.588,0,0,1,181.25,334.565Zm0,0" transform="translate(-158.91 -309.873)"/></g></svg>